<svg width="38" height="31" viewBox="0 0 38 31" fill="none" xmlns="http://www.w3.org/2000/svg">
<g clip-path="url(#clip0_5_2)">
<path d="M38 0.624756H15.2112V11.4384H38V0.624756Z" fill="#E6E6E6"/>
<path d="M37.3483 1.55206H15.8628V10.5743H37.3483V1.55206Z" fill="white"/>
<path d="M37.9902 0H15.2014V0.968136H37.9902V0Z" fill="#FF0000"/>
<path d="M15.9209 0.748713C16.02 0.748713 16.1003 0.668375 16.1003 0.569272C16.1003 0.47017 16.02 0.389832 15.9209 0.389832C15.8218 0.389832 15.7415 0.47017 15.7415 0.569272C15.7415 0.668375 15.8218 0.748713 15.9209 0.748713Z" fill="white"/>
<path d="M16.602 0.748713C16.7011 0.748713 16.7815 0.668375 16.7815 0.569272C16.7815 0.47017 16.7011 0.389832 16.602 0.389832C16.5029 0.389832 16.4226 0.47017 16.4226 0.569272C16.4226 0.668375 16.5029 0.748713 16.602 0.748713Z" fill="white"/>
<path d="M17.2832 0.748713C17.3823 0.748713 17.4626 0.668375 17.4626 0.569272C17.4626 0.47017 17.3823 0.389832 17.2832 0.389832C17.1841 0.389832 17.1038 0.47017 17.1038 0.569272C17.1038 0.668375 17.1841 0.748713 17.2832 0.748713Z" fill="white"/>
<path d="M32.2902 3.01199H28.718V9.11444H32.2902V3.01199Z" fill="#F2F2F2"/>
<path d="M28.1262 3.01187H20.921V4.69164H28.1262V3.01187Z" fill="#FF0000"/>
<path d="M28.1262 5.15942H20.921V6.96677H28.1262V5.15942Z" fill="#F2F2F2"/>
<path d="M28.1262 7.43457H20.921V9.11434H28.1262V7.43457Z" fill="#F2F2F2"/>
<path d="M10.8725 18.0437C10.8732 17.92 10.8477 17.7976 10.7978 17.6844C10.7479 17.5712 10.6746 17.4698 10.5827 17.3869C10.4909 17.304 10.3826 17.2415 10.2649 17.2034C10.1472 17.1653 10.0228 17.1524 9.89979 17.1658C9.86088 17.1702 9.82232 17.1773 9.78439 17.187L6.81247 14.6396L6.99006 13.6824L5.52525 13.2076L5.0836 14.7417C5.03136 14.9258 5.03987 15.1219 5.10787 15.3008C5.17587 15.4797 5.29974 15.6319 5.4611 15.7348L9.11708 18.0471C9.1171 18.0759 9.1186 18.1046 9.12157 18.1332C9.13492 18.2562 9.17411 18.375 9.23657 18.4818C9.29903 18.5886 9.38336 18.681 9.48402 18.7529C9.58468 18.8249 9.6994 18.8747 9.82067 18.8993C9.94195 18.9238 10.067 18.9224 10.1877 18.8952C10.2228 18.8874 10.2574 18.8774 10.2912 18.8653C10.4604 18.8041 10.6068 18.6926 10.7107 18.5457C10.8147 18.3988 10.8711 18.2236 10.8725 18.0437V18.0437Z" fill="#9F616A"/>
<path d="M3.48398 20.9981H7.31577C7.31577 21.1082 11.2649 21.1976 11.2649 21.1976C11.3269 21.2443 11.3834 21.2979 11.4333 21.3573C11.5833 21.5362 11.6653 21.7623 11.6648 21.9958V22.1554C11.6647 22.42 11.5595 22.6737 11.3725 22.8607C11.1854 23.0478 10.9317 23.1529 10.6671 23.153H3.48398C3.21946 23.1528 2.96584 23.0476 2.77879 22.8606C2.59174 22.6735 2.48656 22.4199 2.48633 22.1554V21.9958C2.4867 21.7313 2.59192 21.4777 2.77894 21.2907C2.96596 21.1037 3.2195 20.9985 3.48398 20.9981V20.9981Z" fill="#3F3D56"/>
<path d="M7.65207 23.1134H6.6145V29.8177H7.65207V23.1134Z" fill="#3F3D56"/>
<path d="M10.6052 29.9011C10.6052 30.0266 9.03291 29.9496 7.09342 29.9496C5.15393 29.9496 3.58167 30.0266 3.58167 29.9011C3.58167 29.7755 5.15393 28.7801 7.09342 28.7801C9.03291 28.7801 10.6052 29.7755 10.6052 29.9011Z" fill="#3F3D56"/>
<path d="M9.66853 28.9955L10.6469 28.9954L11.1125 26.4576L9.66833 26.4576L9.66853 28.9955Z" fill="#9F616A"/>
<path d="M9.41888 29.9439L12.5739 29.9438V29.9039C12.5739 29.7426 12.5422 29.5829 12.4804 29.4339C12.4187 29.285 12.3283 29.1496 12.2143 29.0356C12.1002 28.9215 11.9648 28.8311 11.8159 28.7694C11.6669 28.7076 11.5072 28.6759 11.3459 28.6759H11.3458L9.41882 28.676L9.41888 29.9439Z" fill="#2F2E41"/>
<path d="M11.1319 27.4217L13.0826 23.0474C13.2455 22.6787 13.2635 22.2622 13.1331 21.8808C13.0026 21.4994 12.7333 21.1812 12.3788 20.9895L8.14765 18.7206L6.21689 18.5564L4.4359 18.3945L4.42306 18.4162C4.40663 18.444 4.02371 19.1054 4.28255 19.8306C4.47889 20.3807 4.9896 20.8104 5.80049 21.1078C7.69319 21.8018 9.87964 22.3949 10.7318 22.6177C10.7695 22.6273 10.8047 22.6448 10.8351 22.669C10.8655 22.6932 10.8905 22.7236 10.9083 22.7581C10.9262 22.7923 10.9368 22.8297 10.9395 22.8682C10.9422 22.9066 10.9369 22.9452 10.924 22.9815L9.1117 27.0531C9.09277 27.1048 9.08596 27.1601 9.09178 27.2148C9.09761 27.2694 9.11591 27.3221 9.14529 27.3686C9.17466 27.4151 9.21433 27.4542 9.26122 27.4829C9.30811 27.5117 9.36097 27.5293 9.41573 27.5343L10.7699 27.6329C10.7814 27.634 10.7928 27.6346 10.8042 27.6346C10.8736 27.6346 10.9414 27.6144 10.9996 27.5767C11.0577 27.5389 11.1037 27.4851 11.1319 27.4217V27.4217Z" fill="#CBCBCB"/>
<path d="M9.02993 28.9955L10.0083 28.9954L10.4739 26.4576L9.02979 26.4576L9.02993 28.9955Z" fill="#9F616A"/>
<path d="M8.78045 29.9439L11.9355 29.9438V29.9039C11.9355 29.7426 11.9037 29.5829 11.842 29.4339C11.7803 29.285 11.6899 29.1496 11.5758 29.0356C11.4618 28.9215 11.3264 28.8311 11.1774 28.7694C11.0284 28.7076 10.8688 28.6759 10.7075 28.6759H10.7074L8.7804 28.676L8.78045 29.9439Z" fill="#2F2E41"/>
<path d="M10.4137 27.6611L12.3644 23.2868C12.5272 22.9181 12.5452 22.5016 12.4148 22.1202C12.2844 21.7389 12.0151 21.4206 11.6605 21.2289L7.42938 18.96L5.49862 18.7958L4.10366 18.6748L4.10385 18.6556C4.08742 18.6834 3.70449 19.3448 3.96334 20.0701C4.15968 20.6202 4.27132 21.0499 5.08221 21.3472C6.97492 22.0412 9.16136 22.6343 10.0135 22.8571C10.0512 22.8667 10.0864 22.8842 10.1168 22.9084C10.1472 22.9326 10.1722 22.963 10.19 22.9976C10.2079 23.0317 10.2185 23.0692 10.2212 23.1076C10.2239 23.1461 10.2186 23.1846 10.2057 23.2209L8.39343 27.2925C8.3745 27.3442 8.36768 27.3995 8.37351 27.4542C8.37933 27.5089 8.39764 27.5615 8.42701 27.608C8.45639 27.6545 8.49605 27.6936 8.54294 27.7223C8.58983 27.7511 8.64269 27.7687 8.69746 27.7738L10.0516 27.8724C10.0631 27.8735 10.0745 27.874 10.0859 27.874C10.1553 27.874 10.2231 27.8539 10.2813 27.8161C10.3395 27.7783 10.3854 27.7245 10.4137 27.6611Z" fill="#CBCBCB"/>
<path d="M6.73752 18.7546C6.83105 18.6884 8.17415 19.3931 8.41358 18.8344C7.29621 16.041 8.0662 14.8347 7.38175 13.2328C7.2612 12.9565 7.07959 12.7111 6.85057 12.5151C6.62156 12.3191 6.35109 12.1775 6.0595 12.1011L4.28371 12.0114L4.27451 12.0159C3.8738 12.2122 3.547 12.5323 3.34257 12.929C3.13815 13.3256 3.06699 13.7775 3.13964 14.2178C3.14595 15.9611 4.18905 17.2908 3.82432 18.5553C3.80902 18.6082 3.80456 18.6636 3.8112 18.7182C3.81783 18.7728 3.83543 18.8256 3.86294 18.8732C3.88961 18.9193 3.92543 18.9594 3.9682 18.9911C4.01097 19.0228 4.05978 19.0454 4.11161 19.0575L6.45638 18.7447C6.51116 18.7578 6.56808 18.759 6.62336 18.7483C6.67864 18.7376 6.731 18.7152 6.77696 18.6827L6.73752 18.7546Z" fill="#2F2E41"/>
<path d="M4.87629 11.3482C5.95893 11.3482 6.83657 10.4706 6.83657 9.38792C6.83657 8.30529 5.95893 7.42764 4.87629 7.42764C3.79366 7.42764 2.91602 8.30529 2.91602 9.38792C2.91602 10.4706 3.79366 11.3482 4.87629 11.3482Z" fill="#9F616A"/>
<path d="M4.25191 11.1872C4.35607 11.2328 4.56935 10.4028 4.47381 10.2369C4.33173 9.99 4.34013 9.99178 4.2458 9.82846C4.15148 9.66514 4.13038 9.4416 4.25252 9.2979C4.37467 9.1542 4.65733 9.17326 4.71307 9.35343C4.67721 9.01121 5.01571 8.73612 5.35101 8.65881C5.68631 8.58151 6.03999 8.6295 6.37714 8.56071C6.76841 8.48087 7.17552 8.15289 7.0194 7.72262C6.99261 7.65099 6.9525 7.58507 6.9012 7.52835C6.72083 7.32555 6.46852 7.23895 6.22183 7.15522C5.70863 6.98104 5.18139 6.80466 4.63978 6.82389C3.74986 6.85548 2.90867 7.47066 2.60884 8.30914C2.57152 8.41376 2.5426 8.52119 2.52237 8.63042C2.33647 9.63001 2.91694 10.616 3.85973 10.9966L4.25191 11.1872Z" fill="#2F2E41"/>
<path d="M14.5319 14.3395L14.7567 15.6743C14.7592 15.6891 14.7576 15.7044 14.752 15.7184L12.9884 20.1251C12.9814 20.1425 12.9687 20.157 12.9523 20.1662C12.9359 20.1754 12.9168 20.1787 12.8983 20.1755C12.8798 20.1724 12.8629 20.1629 12.8504 20.1488C12.838 20.1347 12.8308 20.1168 12.83 20.098L12.7553 18.3272C12.7548 18.3154 12.7569 18.3037 12.7613 18.2928L14.3748 14.3222C14.3815 14.3056 14.3935 14.2917 14.4088 14.2826C14.4242 14.2734 14.4421 14.2695 14.4599 14.2715C14.4777 14.2734 14.4943 14.2811 14.5073 14.2934C14.5203 14.3057 14.529 14.3218 14.5319 14.3395V14.3395Z" fill="#3F3D56"/>
<path d="M14.407 14.442L14.6207 15.5887L13.0556 19.6098L12.8524 18.3163L14.407 14.442Z" fill="#FF0000"/>
<path d="M7.55982 20.1046C7.59833 20.2549 12.6539 20.4176 12.7064 20.3721C12.7534 20.3138 12.7942 20.2508 12.828 20.184C12.8809 20.0894 12.93 19.9944 12.93 19.9944L12.8469 18.3956L7.86677 17.8634C7.86677 17.8634 7.64645 19.1976 7.57728 19.8106C7.56165 19.9078 7.5558 20.0062 7.55982 20.1046Z" fill="#3F3D56"/>
<path opacity="0.1" d="M12.1953 18.5648L12.1957 19.9422L9.99304 19.7856L10.0905 18.4151L12.1953 18.5648Z" fill="black"/>
<path opacity="0.1" d="M9.32492 18.8034L9.33824 18.8017L9.23423 19.3873L8.0105 19.3003L8.05228 18.7129L9.32492 18.8034Z" fill="black"/>
<path opacity="0.1" d="M7.55982 20.1046C7.59833 20.2549 12.6539 20.4176 12.7064 20.3721C12.7534 20.3139 12.7942 20.2508 12.828 20.184L7.57728 19.8106C7.56165 19.9078 7.5558 20.0063 7.55982 20.1046Z" fill="black"/>
<path d="M5.52974 17.7169L9.79435 18.5128C9.80502 18.5395 9.81705 18.5657 9.83041 18.5911C9.88835 18.7001 9.96859 18.7957 10.0659 18.8717C10.1632 18.9477 10.2754 19.0024 10.3952 19.0321C10.5155 19.0624 10.6409 19.0666 10.7629 19.0445C10.885 19.0224 11.0009 18.9745 11.103 18.9039C11.2878 18.777 11.4171 18.5843 11.4643 18.3651C11.5116 18.146 11.4732 17.917 11.3571 17.7253C11.241 17.5335 11.0559 17.3934 10.8398 17.3337C10.6237 17.274 10.393 17.2992 10.1949 17.4042C10.1604 17.4227 10.1272 17.4436 10.0956 17.4667L6.39145 16.2014L6.20187 15.2464L4.66541 15.3481L4.82461 16.9489C4.84393 17.1357 4.92296 17.3114 5.04998 17.4497C5.177 17.5881 5.34524 17.6818 5.52974 17.7169V17.7169Z" fill="#9F616A"/>
<path d="M4.61339 16.0621L6.84597 15.3283L6.32518 13.833C6.25603 13.6344 6.11891 13.4667 5.93806 13.3594C5.75721 13.2522 5.54427 13.2123 5.33687 13.2469V13.2469C5.12707 13.2819 4.93669 13.3907 4.8001 13.5537C4.66352 13.7168 4.58974 13.9233 4.5921 14.136L4.61339 16.0621Z" fill="#2F2E41"/>
<path d="M18.776 30.0221H0.0491519C0.036116 30.0221 0.023614 30.017 0.0143962 30.0077C0.00517845 29.9985 0 29.986 0 29.973C0 29.9599 0.00517845 29.9474 0.0143962 29.9382C0.023614 29.929 0.036116 29.9238 0.0491519 29.9238H18.776C18.789 29.9238 18.8015 29.929 18.8108 29.9382C18.82 29.9474 18.8252 29.9599 18.8252 29.973C18.8252 29.986 18.82 29.9985 18.8108 30.0077C18.8015 30.017 18.789 30.0221 18.776 30.0221Z" fill="#CBCBCB"/>
<path d="M26.0607 28.4735C26.9589 28.9384 27.3582 29.9505 27.3582 29.9505C27.3582 29.9505 26.3013 30.2089 25.4031 29.7441C24.5049 29.2792 24.1056 28.2671 24.1056 28.2671C24.1056 28.2671 25.1625 28.0087 26.0607 28.4735Z" fill="#F1F1F1"/>
<path d="M25.7734 28.8084C26.3094 29.666 27.3505 29.9822 27.3505 29.9822C27.3505 29.9822 27.5226 28.9078 26.9866 28.0502C26.4507 27.1925 25.4096 26.8764 25.4096 26.8764C25.4096 26.8764 25.2375 27.9507 25.7734 28.8084Z" fill="#F1F1F1"/>
<path d="M28.9996 30.0026H23.3963C23.3833 30.0026 23.3708 29.9975 23.3616 29.9882C23.3523 29.979 23.3472 29.9665 23.3472 29.9535C23.3472 29.9404 23.3523 29.9279 23.3616 29.9187C23.3708 29.9095 23.3833 29.9043 23.3963 29.9043H28.9996C29.0127 29.9043 29.0252 29.9095 29.0344 29.9187C29.0436 29.9279 29.0488 29.9404 29.0488 29.9535C29.0488 29.9665 29.0436 29.979 29.0344 29.9882C29.0252 29.9975 29.0127 30.0026 28.9996 30.0026Z" fill="#CBCBCB"/>
</g>
<defs>
<clipPath id="clip0_5_2">
<rect width="38" height="30.0221" fill="white"/>
</clipPath>
</defs>
</svg>
